<?xml version="1.0" standalone="no"?>
<!DOCTYPE svg PUBLIC "-//W3C//DTD SVG 20010904//EN"
 "http://www.w3.org/TR/2001/REC-SVG-20010904/DTD/svg10.dtd">
<svg version="1.0" xmlns="http://www.w3.org/2000/svg"
 width="512.000000pt" height="512.000000pt" viewBox="0 0 512.000000 512.000000"
 preserveAspectRatio="xMidYMid meet">
<metadata>
Created by potrace 1.14, written by Peter Selinger 2001-2017
</metadata>
<g transform="translate(0.000000,512.000000) scale(0.100000,-0.100000)"
fill="#000000" stroke="none">
<path d="M2123 3732 c-74 -18 -83 -34 -53 -91 l20 -40 -87 -3 -88 -3 0 -80 0
-80 263 0 262 0 0 -51 c0 -27 5 -55 12 -62 9 -9 71 -12 218 -12 l207 0 6 -172
c11 -290 50 -559 95 -661 56 -125 164 -163 239 -84 38 39 58 85 78 182 24 117
24 116 -50 153 -79 39 -89 32 -98 -64 -4 -37 -11 -72 -15 -76 -24 -24 -81 452
-82 675 l0 47 109 0 c81 0 111 4 120 14 7 9 11 41 9 83 l-3 68 -55 5 -55 5 52
35 c29 19 53 39 53 44 0 19 -126 166 -143 166 -4 0 -28 -14 -52 -30 l-44 -30
-3 37 -3 38 -68 3 c-42 2 -74 -2 -83 -9 -11 -9 -14 -41 -14 -135 l0 -123 -210
-3 -210 -3 0 51 c0 27 -5 55 -12 62 -7 7 -41 12 -83 12 l-71 0 -33 75 c-37 83
-33 81 -128 57z m1009 -220 l26 -32 -59 0 -59 0 0 68 1 67 32 -36 c17 -20 44
-50 59 -67z"/>
<path d="M892 3728 c-6 -6 -12 -36 -12 -65 l0 -53 -183 0 c-129 0 -187 -4
-195 -12 -16 -16 -16 -120 0 -136 8 -8 66 -12 195 -12 l183 0 0 -55 0 -55
-243 0 c-176 0 -246 -3 -255 -12 -17 -17 -16 -123 1 -137 9 -7 110 -12 303
-13 l289 -3 -135 -67 c-127 -62 -382 -168 -442 -183 -15 -4 -29 -14 -32 -22
-5 -11 33 -87 69 -141 3 -4 157 60 284 117 63 28 115 50 117 49 1 -2 -11 -51
-27 -108 -16 -58 -27 -115 -24 -127 l5 -23 346 0 345 0 -7 -37 c-3 -21 -13
-54 -23 -73 l-16 -35 -250 -1 c-286 -2 -272 4 -235 -93 l21 -58 168 -7 c92 -4
208 -4 259 0 171 13 215 65 253 302 17 106 19 135 9 147 -11 13 -63 15 -337
15 l-325 0 7 37 c4 21 9 41 11 45 3 5 144 8 313 8 225 0 310 3 319 12 16 16
16 120 0 136 -9 9 -81 12 -262 12 l-251 0 75 50 75 50 215 0 c155 0 219 3 228
12 7 7 12 37 12 68 0 31 -5 61 -12 68 -8 8 -51 12 -127 12 l-115 0 95 98 c100
102 149 161 149 180 0 6 -27 30 -60 52 l-60 40 -37 -42 c-21 -24 -70 -77 -110
-118 l-73 -75 0 55 c0 31 -5 61 -12 68 -8 8 -60 12 -170 12 l-157 0 -3 63 -3
62 -70 3 c-46 2 -74 -1 -83 -10z m413 -333 l-60 -55 -97 0 -98 0 0 55 0 55
158 0 157 -1 -60 -54z"/>
<path d="M3532 3698 c-17 -17 -16 -142 1 -157 10 -7 156 -12 478 -13 l464 -3
-75 -59 c-41 -32 -132 -97 -202 -143 l-128 -85 0 -339 0 -338 -132 -3 c-157
-4 -156 -2 -110 -113 l29 -70 144 0 c158 0 189 9 233 68 20 27 21 41 24 363
l3 334 75 51 c110 74 235 170 347 266 l97 84 0 73 c0 43 -5 77 -12 84 -17 17
-1219 17 -1236 0z"/>
<path d="M1952 3358 c-7 -7 -12 -37 -12 -68 0 -31 5 -61 12 -68 17 -17 439
-17 456 0 7 7 12 37 12 68 0 31 -5 61 -12 68 -17 17 -439 17 -456 0z"/>
<path d="M2442 3188 c-16 -16 -16 -130 0 -146 7 -7 38 -12 70 -12 l58 0 -2
-197 -3 -197 -55 -18 c-96 -30 -89 -39 -92 140 l-3 157 -219 3 c-153 2 -223
-1 -232 -9 -21 -17 -20 -531 0 -548 9 -7 42 -11 88 -9 l73 3 3 43 3 43 57 -3
c51 -3 57 -5 62 -28 6 -24 9 -25 85 -25 l80 0 5 70 c5 67 5 68 12 29 5 -23 15
-44 23 -48 19 -7 209 58 351 120 l106 47 -4 75 c-3 45 -10 77 -18 82 -8 5 -39
-4 -77 -21 -36 -16 -67 -29 -69 -29 -2 0 -4 72 -4 160 l0 159 58 3 57 3 0 80
0 80 -200 3 c-148 2 -204 -1 -213 -10z m-199 -500 c3 -34 3 -66 1 -70 -3 -4
-30 -8 -60 -8 l-54 0 0 70 0 70 54 0 53 0 6 -62z"/>
<path d="M1952 3138 c-7 -7 -12 -37 -12 -68 0 -31 5 -61 12 -68 17 -17 439
-17 456 0 7 7 12 37 12 68 0 31 -5 61 -12 68 -17 17 -439 17 -456 0z"/>
<path d="M3220 1770 l0 -380 40 0 40 0 0 380 0 380 -40 0 -40 0 0 -380z"/>
<path d="M940 1750 l0 -360 185 0 185 0 0 35 0 35 -150 0 -150 0 0 130 0 130
130 0 130 0 0 35 0 35 -130 0 -130 0 0 125 0 125 140 0 140 0 0 35 0 35 -175
0 -175 0 0 -360z"/>
<path d="M1995 1904 c-11 -3 -41 -14 -67 -26 -43 -19 -48 -25 -48 -54 l0 -33
53 24 c72 34 149 34 182 1 27 -27 44 -94 26 -105 -6 -4 -52 -13 -102 -20 -105
-14 -162 -39 -189 -84 -25 -40 -26 -118 -4 -157 50 -84 198 -91 271 -13 l33
34 0 -40 0 -41 41 0 41 0 -4 198 c-4 221 -14 260 -75 295 -32 18 -120 30 -158
21z m153 -320 c-4 -47 -10 -61 -41 -91 -30 -31 -44 -37 -89 -41 -69 -5 -108
21 -108 74 0 67 26 87 135 103 114 16 108 19 103 -45z"/>
<path d="M2543 1899 c-18 -5 -48 -26 -68 -46 l-35 -36 0 41 0 42 -40 0 -40 0
0 -255 0 -255 40 0 40 0 0 165 c0 184 7 214 59 258 60 50 146 29 175 -43 13
-32 16 -77 16 -210 l0 -170 34 0 34 0 4 168 c3 140 6 173 22 206 34 68 120 98
175 60 43 -31 51 -70 51 -259 l0 -175 41 0 41 0 -4 193 c-3 171 -6 197 -25
240 -48 104 -195 118 -278 25 -35 -38 -38 -39 -48 -22 -38 69 -112 97 -194 73z"/>
<path d="M3575 1895 c-55 -19 -121 -93 -140 -158 -40 -134 8 -280 109 -335 21
-11 56 -16 111 -16 67 -1 87 3 125 24 40 22 45 30 48 64 l3 38 -28 -19 c-69
-48 -169 -57 -223 -20 -47 31 -71 67 -77 115 l-6 42 182 0 181 0 0 46 c0 175
-128 274 -285 219z m145 -70 c33 -17 60 -61 60 -100 l0 -25 -140 0 c-155 0
-154 -1 -117 64 39 68 129 96 197 61z"/>
<path d="M4130 1892 c-20 -9 -44 -34 -57 -57 l-23 -40 0 53 0 52 -40 0 -40 0
0 -255 0 -255 40 0 40 0 0 153 c0 175 9 218 55 264 35 35 77 43 116 23 17 -10
19 -7 19 24 0 56 -45 71 -110 38z"/>
<path d="M1445 1771 l85 -131 -85 -120 c-47 -67 -85 -123 -85 -125 0 -3 19 -5
43 -5 l42 0 60 100 c33 55 63 99 67 97 4 -1 34 -45 65 -97 58 -94 58 -95 101
-98 23 -2 42 -1 42 3 0 3 -36 60 -81 126 l-81 121 86 129 86 129 -42 0 -43 -1
-61 -102 c-34 -56 -65 -101 -70 -101 -5 1 -33 46 -64 100 l-56 99 -47 3 -47 3
85 -130z"/>
</g>
</svg>
